<?xml version="1.0" standalone="no"?>
<!DOCTYPE svg PUBLIC "-//W3C//DTD SVG 20010904//EN"
 "http://www.w3.org/TR/2001/REC-SVG-20010904/DTD/svg10.dtd">
<svg version="1.0" xmlns="http://www.w3.org/2000/svg"
 width="512.000000pt" height="512.000000pt" viewBox="0 0 512.000000 512.000000"
 preserveAspectRatio="xMidYMid meet">
<metadata>
Created by potrace 1.14, written by Peter Selinger 2001-2017
</metadata>
<g transform="translate(0.000000,512.000000) scale(0.100000,-0.100000)"
fill="#000000" stroke="none">
<path d="M1846 5109 c4 -7 1 -10 -7 -7 -18 6 -53 -30 -68 -72 -18 -47 -24
-100 -12 -100 6 0 8 -9 6 -20 -2 -11 3 -27 11 -35 9 -8 13 -15 9 -15 -4 0 0
-7 9 -15 8 -8 20 -15 26 -15 6 0 9 -4 5 -9 -3 -5 4 -16 15 -24 11 -7 17 -17
13 -20 -3 -4 -2 -7 4 -7 9 0 35 -48 39 -72 1 -5 2 -9 3 -10 2 -2 5 -14 8 -28
7 -30 7 -1427 1 -1455 -3 -11 -10 -32 -16 -47 -7 -16 -17 -40 -24 -55 -6 -16
-10 -34 -9 -42 1 -7 -2 -10 -8 -6 -6 3 -11 1 -11 -4 0 -20 -2 -26 -25 -68 -13
-22 -21 -44 -18 -47 4 -3 1 -6 -6 -6 -7 0 -10 -4 -6 -9 3 -5 1 -12 -5 -16 -6
-4 -8 -10 -5 -15 3 -4 -2 -13 -10 -20 -8 -7 -12 -16 -9 -21 3 -5 0 -9 -7 -9
-7 0 -9 -3 -6 -7 4 -3 2 -12 -4 -20 -6 -7 -8 -13 -5 -13 4 0 0 -7 -8 -16 -9
-8 -14 -20 -11 -25 4 -5 1 -9 -5 -9 -6 0 -8 -4 -5 -10 3 -5 1 -10 -4 -10 -6 0
-11 -9 -11 -19 0 -11 -5 -23 -10 -26 -6 -4 -8 -11 -5 -16 4 -5 1 -9 -5 -9 -6
0 -8 -4 -5 -10 3 -5 1 -10 -6 -10 -7 0 -9 -3 -6 -6 3 -4 1 -16 -5 -28 -7 -11
-11 -24 -10 -28 1 -5 -2 -8 -7 -8 -5 0 -12 -12 -17 -27 -4 -16 -8 -30 -9 -33
-1 -3 -21 -45 -45 -95 -23 -49 -43 -96 -43 -102 0 -7 -4 -13 -8 -13 -7 0 -22
-39 -20 -52 1 -5 -4 -8 -11 -8 -6 0 -8 -3 -5 -7 4 -3 0 -17 -8 -30 -9 -13 -13
-23 -10 -23 4 0 -1 -7 -9 -16 -9 -8 -14 -20 -11 -25 4 -5 1 -9 -5 -9 -7 0 -10
-7 -6 -15 3 -8 2 -15 -3 -15 -8 0 -24 -38 -22 -52 1 -5 -4 -8 -11 -8 -6 0 -9
-3 -5 -6 3 -3 -7 -31 -23 -62 -16 -31 -26 -60 -24 -64 3 -4 0 -8 -6 -8 -6 0
-9 -4 -6 -9 4 -5 1 -11 -4 -13 -6 -2 -12 -10 -13 -18 -2 -8 -10 -30 -20 -49
-9 -19 -17 -40 -17 -48 0 -7 -5 -13 -11 -13 -5 0 -7 -4 -4 -10 3 -5 1 -10 -6
-10 -7 0 -9 -3 -6 -7 4 -3 -2 -20 -13 -38 -11 -18 -17 -35 -13 -38 3 -4 1 -7
-6 -7 -7 0 -10 -4 -6 -9 3 -5 1 -12 -5 -16 -5 -3 -10 -15 -10 -26 0 -10 -5
-19 -11 -19 -6 0 -8 -7 -5 -16 3 -8 2 -13 -3 -10 -10 7 -33 -49 -24 -58 4 -3
1 -6 -6 -6 -7 0 -9 -4 -6 -10 3 -5 1 -10 -5 -10 -6 0 -8 -4 -5 -10 3 -5 1 -10
-6 -10 -7 0 -9 -3 -6 -7 4 -3 0 -17 -8 -30 -9 -13 -13 -23 -10 -23 4 0 -1 -7
-9 -16 -9 -8 -14 -20 -11 -25 4 -5 1 -9 -5 -9 -6 0 -9 -4 -5 -9 3 -5 1 -12 -5
-16 -6 -4 -8 -10 -5 -15 3 -4 -2 -13 -10 -20 -8 -7 -12 -16 -9 -21 3 -5 0 -9
-7 -9 -7 0 -10 -3 -7 -6 4 -3 -7 -30 -23 -60 -15 -30 -23 -51 -16 -47 6 4 2
-6 -11 -21 -12 -16 -19 -32 -16 -37 3 -5 0 -9 -6 -9 -6 0 -8 -4 -5 -10 3 -5 1
-10 -5 -10 -6 0 -8 -4 -5 -10 3 -5 1 -10 -5 -10 -6 0 -9 -4 -5 -9 3 -5 1 -12
-5 -16 -6 -4 -8 -11 -5 -16 4 -5 2 -9 -2 -9 -9 0 -39 -69 -35 -83 1 -4 -3 -7
-9 -7 -5 0 -8 -4 -5 -9 3 -5 -1 -14 -9 -21 -8 -7 -12 -16 -9 -21 3 -5 1 -9 -5
-9 -6 0 -8 -7 -5 -15 4 -8 1 -15 -6 -15 -6 0 -8 -5 -5 -10 3 -6 3 -10 -2 -10
-4 0 -14 -15 -21 -33 -7 -17 -23 -52 -35 -77 -12 -24 -21 -49 -19 -54 2 -5 -1
-12 -5 -15 -15 -11 -64 -121 -58 -130 3 -5 1 -11 -5 -13 -15 -5 -23 -44 -25
-128 -2 -79 8 -128 31 -146 8 -6 10 -14 6 -18 -3 -4 4 -16 18 -28 14 -11 18
-16 10 -12 -8 4 2 -9 22 -29 20 -21 42 -37 48 -37 5 0 10 -5 10 -11 0 -5 5 -7
10 -4 6 3 10 1 10 -5 0 -6 4 -9 9 -5 5 3 13 0 16 -6 4 -5 14 -8 22 -5 8 3 11
1 8 -4 -6 -9 3358 -9 3393 0 6 2 12 7 12 12 0 5 4 7 9 3 5 -3 16 2 24 10 9 8
19 15 24 15 12 0 48 43 45 53 -1 5 2 5 8 2 7 -4 14 2 17 14 3 12 9 21 13 21 9
0 25 40 22 53 -1 4 2 7 6 7 11 0 13 9 17 110 2 50 -1 90 -7 97 -6 7 -8 13 -4
13 8 0 -25 83 -37 91 -5 3 -7 8 -5 11 3 5 -42 109 -52 118 -3 3 -6 10 -7 16
-1 7 -15 38 -30 70 -15 33 -28 65 -29 73 -2 8 -8 17 -14 21 -7 4 -12 11 -12
16 0 5 -5 20 -11 34 -6 14 -11 27 -12 30 -11 36 -39 90 -47 90 -5 0 -7 4 -3 9
3 6 -4 27 -16 47 -11 21 -22 45 -24 54 -6 28 -32 70 -39 63 -4 -4 -4 -1 -1 8
3 8 -6 37 -20 64 -14 28 -25 56 -25 63 0 6 -5 12 -11 12 -5 0 -8 4 -4 9 3 5 0
15 -7 23 -7 7 -14 20 -16 28 -2 8 -8 17 -13 18 -5 2 -6 8 -3 13 3 6 -1 20 -9
32 -7 12 -22 43 -32 70 -10 26 -22 47 -27 47 -5 0 -7 4 -3 9 3 5 1 12 -5 16
-6 4 -8 10 -5 15 3 5 -2 16 -11 24 -8 9 -13 16 -9 16 3 0 -2 15 -12 33 -9 17
-16 35 -15 39 1 5 -3 8 -9 8 -5 0 -8 4 -4 9 3 5 0 15 -7 23 -7 7 -14 20 -16
28 -2 8 -17 44 -34 80 -60 128 -76 165 -83 188 -3 12 -10 22 -14 22 -4 0 -8
10 -8 22 -1 13 -7 24 -13 26 -5 2 -10 10 -10 18 0 8 -9 31 -20 51 -11 21 -20
43 -20 50 0 7 -5 13 -10 13 -6 0 -9 3 -8 8 4 13 -34 102 -44 102 -5 0 -7 4 -3
9 3 5 1 12 -4 15 -4 3 -11 19 -15 36 -4 21 -10 29 -17 24 -8 -4 -9 -3 -5 4 4
6 1 22 -6 34 -6 13 -13 29 -14 37 -2 8 -8 17 -14 21 -7 4 -11 9 -9 11 5 9 -13
49 -22 49 -6 0 -8 4 -5 9 5 8 -20 70 -33 81 -3 3 -8 14 -9 25 -2 11 -9 23 -15
27 -7 4 -8 8 -4 8 5 0 1 12 -7 28 -26 49 -56 118 -56 130 0 7 -5 12 -11 12 -5
0 -8 4 -4 9 3 5 -2 16 -10 24 -8 9 -15 20 -15 26 0 16 -42 105 -51 109 -5 2
-6 9 -3 16 3 8 -3 22 -13 31 -10 10 -17 20 -15 22 1 2 2 4 1 6 -4 13 -9 40
-16 82 -10 59 -8 1376 1 1420 4 17 8 35 9 41 2 6 11 23 20 37 10 15 14 27 10
27 -4 0 2 7 13 15 10 8 16 15 13 15 -4 0 13 20 36 45 23 25 42 51 43 58 8 54
9 103 4 112 -4 5 -8 19 -9 30 -4 23 -43 66 -53 60 -5 -3 -10 2 -14 10 -5 13
-96 15 -726 15 -534 0 -719 -3 -714 -11z"/>
</g>
</svg>
